# xmcd CD database file
#
# Track frame offsets:
#	150
#	20589
#	52347
#	72862
#	98644
#	119814
#	143011
#	164766
#
# Disc length: 2551 seconds
#
# Revision: 0
# Processed by: cddbd v1.5.1PL0 Copyright (c) Steve Scherf et al.
# Submitted via: CDex 1.51
#
DISCID=7809f508
DTITLE=Level 42  - Level 42
DYEAR=1900
DGENRE=Jazz
TTITLE0=Turn It On
TTITLE1="43"
TTITLE2=Why Are You Leaving
TTITLE3=Almost There
TTITLE4=Heathrow
TTITLE5=Love Games
TTITLE6=Dune Tune
TTITLE7=Starchild
EXTD=
EXTT0=
EXTT1=
EXTT2=
EXTT3=
EXTT4=
EXTT5=
EXTT6=
EXTT7=
PLAYORDER=
